<svg viewBox="-16 0 511 511.999" xmlns="http://www.w3.org/2000/svg"><path d="M311.133 348.57l126.976-113.62c10.926-9.774 5.875-27.833-8.535-30.524l-215.18-40.149c-19.43-3.625-38.699 7.043-45.937 25.438l-20.238 51.414a88.09 88.09 0 01-35.508 42.578l-93.566 58.086c-18.282 11.352-13.028 39.246 8.128 43.168l96.782 17.934a73.67 73.67 0 0148.254 32.14l38.41 58.79c10.8 16.527 35.926 13.226 42.09-5.532l33.378-101.574a88.122 88.122 0 0124.946-38.149zm0 0" fill="#ff94de"/><path d="M148.219 241.129a88.108 88.108 0 01-35.508 42.578l-93.566 58.086c-18.282 11.352-13.028 39.246 8.128 43.168l96.782 17.934a73.67 73.67 0 0148.254 32.14l38.41 58.79c10.8 16.527 35.926 13.226 42.09-5.532l21.734-66.148c-30.719-32.774-68.66-53.325-100-65.813-26.313-10.48-40.813-38.988-33.39-66.32 6.847-25.223 7.066-48.883 7.066-48.883zm0 0" fill="#ff71da"/><path d="M295.965 213.16l91.25 13.274c8.015 1.164 10.336 11.629 3.562 16.074L244.06 338.785zm0 0" fill="#ffeb99"/><path d="M218.297 343.309l-24.258-17.004c-8.363-5.867-10.39-17.403-4.527-25.766l163.27-232.867 54.546 38.242-163.27 232.871c-5.867 8.363-17.398 10.39-25.761 4.524zm0 0" fill="#898890"/><path d="M190.195 389.402l-29.914-20.972c-6.8-4.766-8.449-14.149-3.68-20.95 4.77-6.8 14.149-8.449 20.954-3.683l29.91 20.973c6.805 4.77 8.453 14.152 3.683 20.953-4.77 6.8-14.148 8.449-20.953 3.68zm0 0" fill="#ffeb99"/><path d="M240.191 430.586c0 8.309-6.738 15.043-15.046 15.043-8.31 0-15.043-6.734-15.043-15.043s6.734-15.047 15.043-15.047c8.308 0 15.046 6.738 15.046 15.047zm0 0" fill="#9ff6ff"/><path d="M306.809 133.238c27.218-1.242 56.418 1.086 78.754 3.715l21.761-31.039-54.547-38.242zm0 0" fill="#706f77"/><path d="M452.926 7.824l-59.344 11.387a54.887 54.887 0 00-34.605 22.398l-10.739 15.313c-5.773 8.238-3.777 19.598 4.461 25.371l40.906 28.684c8.239 5.773 19.598 3.777 25.372-4.461l50.867-72.551c8.668-12.356-2.094-28.98-16.918-26.14zm0 0" fill="#acabb1"/><path d="M388.71 48.883a7.499 7.499 0 11-14.995 0 7.499 7.499 0 1114.996 0zm0 0M416.992 42.281a7.499 7.499 0 11-14.996 0 7.499 7.499 0 1114.996 0zm0 0M444.895 34.914c0 4.14-3.36 7.5-7.5 7.5s-7.5-3.36-7.5-7.5c0-4.14 3.359-7.496 7.5-7.496s7.5 3.355 7.5 7.496zm0 0M237.242 471.871c0 4.14-3.36 7.5-7.5 7.5-4.14 0-7.5-3.36-7.5-7.5s3.36-7.5 7.5-7.5c4.14 0 7.5 3.36 7.5 7.5zm0 0"/><path d="M378.52 147c1.308.918 7.035 3.246 10.445-1.832l16.433-23.441c7.63-.407 15.008-4.18 19.723-10.903l50.867-72.55c5.797-8.27 5.989-18.676.504-27.153-5.488-8.48-15.058-12.566-24.976-10.66l-59.348 11.387c-16.008 3.07-29.977 12.109-39.332 25.457l-10.738 15.312c-4.711 6.727-5.743 14.946-3.524 22.254L183.371 296.234c-8.23 11.739-5.375 27.98 6.36 36.211l24.257 17.004a25.835 25.835 0 0014.887 4.703c7.71 0 15.309-3.414 20.387-9.816l145.629-95.559c5.718-3.75 8.453-10.488 6.972-17.16-1.476-6.672-6.804-11.62-13.57-12.605l-46.371-6.746 10.27-14.649 76.007 14.18c3.895.73 6.856 3.441 7.922 7.254s-.059 7.668-3.012 10.308L306.133 342.98a95.739 95.739 0 00-27.07 41.395l-33.38 101.578c-1.972 6.004-6.89 10.078-13.156 10.902-6.265.82-12.074-1.843-15.53-7.136l-38.411-58.785c-12.078-18.485-31.453-31.391-53.164-35.414L28.64 377.586c-7.973-1.48-11.868-7.59-12.852-12.813-.98-5.226.422-12.332 7.309-16.605l93.57-58.09c17.363-10.777 31.047-27.187 38.531-46.203l20.238-51.414c5.91-15.02 21.715-23.77 37.583-20.809l29.664 5.536a7.494 7.494 0 008.746-6c.761-4.07-1.926-7.985-5.996-8.747l-29.664-5.535c-22.922-4.277-45.75 8.364-54.29 30.059l-20.238 51.418c-6.312 16.031-17.847 29.863-32.488 38.953l-93.567 58.086c-10.98 6.816-16.53 19.43-14.136 32.129 2.39 12.699 12.148 22.43 24.855 24.785l96.781 17.934c17.7 3.277 33.497 13.8 43.34 28.867l38.414 58.789c5.82 8.91 15.485 14.074 25.891 14.074 15.117 0 25.84-9.926 29.602-21.363l33.378-101.578a80.723 80.723 0 0122.82-34.899L443.11 240.54c7.203-6.442 10.059-16.227 7.453-25.528-2.601-9.305-10.117-16.184-19.613-17.957l-69.3-12.93 10.054-14.336a7.5 7.5 0 00-1.836-10.45 7.502 7.502 0 00-10.445 1.837l-121.504 173.3c-3.48 4.965-10.352 6.172-15.316 2.692l-24.258-17.004c-4.965-3.48-6.172-10.355-2.692-15.316L347.727 87.94c.222.164 42.039 29.473 42.273 29.625l-13.316 18.989A7.495 7.495 0 00378.52 147zm7.613 86.855c1.285.18 1.941 1.458.531 2.38l-113.996 74.804 59.61-85.02zm-29.13-157.703c-4.835-3.39-6.015-10.086-2.62-14.925l10.734-15.313c7.11-10.137 17.719-17.004 29.875-19.336l59.348-11.387c10.37-1.93 14.777 6.286 9.367 14.47l-50.867 72.55c-3.899 5.504-9.7 6.016-14.926 2.625zm0 0"/><path d="M211.773 358.629l-29.914-20.973c-10.18-7.133-24.261-4.66-31.398 5.516a22.415 22.415 0 00-3.746 16.844 22.408 22.408 0 009.262 14.558l29.914 20.973a22.413 22.413 0 0012.906 4.074c7.11 0 14.11-3.344 18.488-9.594 3.457-4.93 4.79-10.91 3.746-16.84-1.039-5.933-4.328-11.101-9.258-14.558zm-6.765 22.789c-2.387 3.402-7.102 4.23-10.508 1.844l-29.914-20.973a7.492 7.492 0 01-3.098-4.871 7.496 7.496 0 011.254-5.633 7.498 7.498 0 014.871-3.101 7.48 7.48 0 015.633 1.253l29.914 20.973a7.492 7.492 0 013.098 4.871 7.486 7.486 0 01-1.25 5.637zm0 0M243.602 443.531c3.46-4.93 4.789-10.91 3.746-16.844a22.388 22.388 0 00-9.258-14.558c-10.176-7.14-24.266-4.664-31.403 5.512-7.136 10.18-4.664 24.265 5.512 31.402a22.426 22.426 0 0012.914 4.082c7.106 0 14.106-3.348 18.489-9.594zm-12.282-8.613c-2.386 3.406-7.101 4.234-10.507 1.844-3.407-2.387-4.235-7.102-1.844-10.508 1.465-2.09 5.695-4.871 10.508-1.844 4.812 3.024 3.003 8.86 1.843 10.508zm0 0"/></svg>