<svg viewBox="-16 0 511 511.99948" xmlns="http://www.w3.org/2000/svg"><path d="m311.132812 348.570312 126.976563-113.621093c10.925781-9.773438 5.875-27.832031-8.535156-30.523438l-215.179688-40.148437c-19.429687-3.625-38.699219 7.042968-45.9375 25.4375l-20.238281 51.414062c-6.945312 17.644532-19.398438 32.578125-35.507812 42.578125l-93.566407 58.085938c-18.28125 11.351562-13.027343 39.246093 8.128907 43.167969l96.78125 17.933593c19.800781 3.667969 37.238281 15.28125 48.253906 32.140625l38.410156 58.789063c10.800781 16.527343 35.925781 13.226562 42.089844-5.53125l33.378906-101.574219c4.824219-14.683594 13.429688-27.839844 24.945312-38.148438zm0 0" fill="#ff94de"/><path d="m148.21875 241.128906c-6.945312 17.644532-19.398438 32.574219-35.507812 42.578125l-93.566407 58.085938c-18.28125 11.351562-13.027343 39.246093 8.128907 43.167969l96.78125 17.933593c19.800781 3.667969 37.238281 15.28125 48.253906 32.140625l38.410156 58.789063c10.800781 16.527343 35.925781 13.226562 42.089844-5.53125l21.734375-66.148438c-30.71875-32.773437-68.660157-53.324219-100-65.8125-26.3125-10.480469-40.8125-38.988281-33.390625-66.320312 6.847656-25.222657 7.066406-48.882813 7.066406-48.882813zm0 0" fill="#ff71da"/><path d="m295.964844 213.160156 91.25 13.273438c8.015625 1.164062 10.335937 11.628906 3.5625 16.074218l-146.71875 96.277344zm0 0" fill="#ffeb99"/><path d="m218.296875 343.308594-24.257813-17.003906c-8.363281-5.867188-10.390624-17.402344-4.527343-25.765626l163.269531-232.867187 54.546875 38.242187-163.269531 232.871094c-5.867188 8.363282-17.398438 10.390625-25.761719 4.523438zm0 0" fill="#898890"/><path d="m190.195312 389.402344-29.914062-20.972656c-6.800781-4.765626-8.449219-14.148438-3.679688-20.949219 4.769532-6.800781 14.148438-8.449219 20.953126-3.683594l29.910156 20.972656c6.804687 4.769531 8.453125 14.152344 3.683594 20.953125-4.769532 6.800782-14.148438 8.449219-20.953126 3.679688zm0 0" fill="#ffeb99"/><path d="m240.191406 430.585938c0 8.308593-6.738281 15.042968-15.046875 15.042968-8.308593 0-15.042969-6.734375-15.042969-15.042968 0-8.308594 6.734376-15.046876 15.042969-15.046876 8.308594 0 15.046875 6.738282 15.046875 15.046876zm0 0" fill="#9ff6ff"/><path d="m306.808594 133.238281c27.21875-1.242187 56.417968 1.085938 78.753906 3.714844l21.761719-31.039063-54.546875-38.242187zm0 0" fill="#706f77"/><path d="m452.925781 7.824219-59.34375 11.386719c-14.007812 2.6875-26.417969 10.71875-34.605469 22.398437l-10.738281 15.3125c-5.773437 8.238281-3.777343 19.597656 4.460938 25.371094l40.90625 28.683593c8.238281 5.773438 19.597656 3.777344 25.371093-4.460937l50.867188-72.550781c8.667969-12.355469-2.09375-28.980469-16.917969-26.140625zm0 0" fill="#acabb1"/><path d="m388.710938 48.882812c0 4.140626-3.355469 7.5-7.496094 7.5-4.144532 0-7.5-3.359374-7.5-7.5 0-4.140624 3.355468-7.5 7.5-7.5 4.140625 0 7.496094 3.359376 7.496094 7.5zm0 0"/><path d="m416.992188 42.28125c0 4.140625-3.355469 7.5-7.5 7.5-4.140626 0-7.496094-3.359375-7.496094-7.5s3.355468-7.5 7.496094-7.5c4.144531 0 7.5 3.359375 7.5 7.5zm0 0"/><path d="m444.894531 34.914062c0 4.140626-3.359375 7.5-7.5 7.5s-7.5-3.359374-7.5-7.5c0-4.140624 3.359375-7.496093 7.5-7.496093s7.5 3.355469 7.5 7.496093zm0 0"/><path d="m237.242188 471.871094c0 4.140625-3.359376 7.5-7.5 7.5-4.140626 0-7.5-3.359375-7.5-7.5s3.359374-7.5 7.5-7.5c4.140624 0 7.5 3.359375 7.5 7.5zm0 0"/><path d="m378.519531 147c1.308594.917969 7.035157 3.246094 10.445313-1.832031l16.433594-23.441407c7.628906-.40625 15.007812-4.179687 19.722656-10.902343l50.867187-72.550781c5.796875-8.269532 5.988281-18.675782.503907-27.152344-5.488282-8.480469-15.058594-12.566406-24.976563-10.660156l-59.347656 11.386718c-16.007813 3.070313-29.976563 12.109375-39.332031 25.457032l-10.738282 15.3125c-4.710937 6.726562-5.742187 14.945312-3.523437 22.253906l-155.203125 221.363281c-8.230469 11.738281-5.375 27.980469 6.359375 36.210937l24.257812 17.003907c4.53125 3.179687 9.734375 4.703125 14.886719 4.703125 7.710938 0 15.308594-3.414063 20.386719-9.816406l145.628906-95.558594c5.71875-3.75 8.453125-10.488282 6.972656-17.160156-1.476562-6.671876-6.804687-11.621094-13.570312-12.605469l-46.371094-6.746094 10.269531-14.648437 76.007813 14.179687c3.894531.730469 6.855469 3.441406 7.921875 7.253906s-.058594 7.667969-3.011719 10.308594l-126.976563 113.621094c-12.480468 11.171875-21.84375 25.484375-27.070312 41.394531l-33.378906 101.578125c-1.972656 6.003906-6.890625 10.078125-13.15625 10.902344-6.265625.820312-12.074219-1.84375-15.53125-7.136719l-38.410156-58.785156c-12.078126-18.484375-31.453126-31.390625-53.164063-35.414063l-96.78125-17.933593c-7.972656-1.480469-11.867187-7.589844-12.851563-12.8125-.980468-5.226563.421876-12.332032 7.308594-16.605469l93.570313-58.089844c17.363281-10.777344 31.046875-27.1875 38.53125-46.203125l20.238281-51.414062c5.910156-15.019532 21.714844-23.769532 37.582031-20.808594l29.664063 5.535156c4.074218.761719 7.988281-1.925781 8.746094-6 .761718-4.070312-1.925782-7.984375-5.996094-8.746094l-29.664063-5.535156c-22.921875-4.277344-45.75 8.363281-54.289062 30.058594l-20.238281 51.417968c-6.3125 16.03125-17.847657 29.863282-32.488282 38.953126l-93.566406 58.085937c-10.980469 6.816406-16.53125 19.429687-14.136719 32.128906 2.390625 12.699219 12.148438 22.429688 24.855469 24.785157l96.78125 17.933593c17.699219 3.277344 33.496094 13.800781 43.339844 28.867188l38.414062 58.789062c5.820313 8.910157 15.484375 14.074219 25.890625 14.074219 15.117188 0 25.839844-9.925781 29.601563-21.363281l33.378906-101.578125c4.40625-13.414063 12.300781-25.480469 22.820312-34.898438l126.976563-113.621094c7.203125-6.441406 10.058594-16.226562 7.453125-25.527343-2.601562-9.304688-10.117188-16.183594-19.613281-17.957031l-69.300781-12.929688 10.054687-14.335938c2.378906-3.394531 1.558594-8.070312-1.835937-10.449218-3.390626-2.375-8.066407-1.554688-10.445313 1.835937l-121.503906 173.300781c-3.480469 4.964844-10.351563 6.171876-15.316407 2.691407l-24.257812-17.003907c-4.964844-3.480468-6.171875-10.355468-2.691406-15.316406l152.074218-216.90625c.222657.164063 42.039063 29.472656 42.273438 29.625l-13.316406 18.988282c-2.378906 3.390624-1.558594 8.070312 1.835937 10.445312zm7.613281 86.855469c1.285157.179687 1.941407 1.457031.53125 2.378906l-113.996093 74.804687 59.609375-85.019531zm-29.128906-157.703125c-4.835937-3.390625-6.015625-10.085938-2.621094-14.925782l10.734376-15.3125c7.109374-10.136718 17.71875-17.003906 29.875-19.335937l59.347656-11.386719c10.371094-1.929687 14.777344 6.285156 9.367187 14.46875l-50.867187 72.550782c-3.898438 5.503906-9.699219 6.015624-14.925782 2.625zm0 0"/><path d="m211.773438 358.628906-29.914063-20.972656c-10.179687-7.132812-24.261719-4.660156-31.398437 5.515625-3.457032 4.933594-4.785157 10.914063-3.746094 16.84375 1.042968 5.929687 4.332031 11.101563 9.261718 14.558594l29.914063 20.972656c3.929687 2.753906 8.4375 4.074219 12.90625 4.074219 7.109375 0 14.109375-3.34375 18.488281-9.59375 3.457032-4.929688 4.789063-10.910156 3.746094-16.839844-1.039062-5.933594-4.328125-11.101562-9.257812-14.558594zm-6.765626 22.789063c-2.386718 3.402343-7.101562 4.230469-10.507812 1.84375l-29.914062-20.972657c-1.648438-1.15625-2.75-2.886718-3.097657-4.871093-.347656-1.980469.097657-3.984375 1.253907-5.632813 1.15625-1.652344 2.886718-2.75 4.871093-3.101562 1.980469-.351563 3.984375.097656 5.632813 1.253906l29.914062 20.972656c1.648438 1.15625 2.75 2.886719 3.097656 4.871094.351563 1.984375-.09375 3.984375-1.25 5.636719zm0 0"/><path d="m243.601562 443.53125c3.460938-4.929688 4.789063-10.910156 3.746094-16.84375-1.039062-5.929688-4.328125-11.101562-9.257812-14.558594-10.175782-7.140625-24.265625-4.664062-31.402344 5.511719-7.136719 10.179687-4.664062 24.265625 5.511719 31.402344 3.933593 2.757812 8.445312 4.082031 12.914062 4.082031 7.105469 0 14.105469-3.347656 18.488281-9.59375zm-12.28125-8.613281c-2.386718 3.40625-7.101562 4.234375-10.507812 1.84375-3.40625-2.386719-4.234375-7.101563-1.84375-10.507813 1.464844-2.089844 5.695312-4.871094 10.507812-1.84375 4.8125 3.023438 3.003907 8.859375 1.84375 10.507813zm0 0"/></svg>