<svg height="477pt" viewBox="0 -23 477.988 477" width="477pt" xmlns="http://www.w3.org/2000/svg"><path d="m58.789062 333.582031 59.085938 59.089844 2.644531-23.125 23.125 2.644531 2.644531-23.125 23.109376 2.628906 2.644531-23.125 23.128906 2.644532 2.644531-23.125 23.125 2.644531 2.644532-23.121094 23.125 2.640625 2.644531-23.121094 23.125 2.644532 2.644531-23.125 23.121094 2.644531 2.644531-23.125 23.125 2.644531 2.644531-23.125 23.125 2.644532 2.644532-23.125 23.121093 2.644531 1.046875-9.15625-81.449218-81.472657zm50.371094-8.660156c4.125 4.128906 4.125 10.820313 0 14.945313-4.128906 4.128906-10.820312 4.128906-14.945312 0-4.128906-4.125-4.128906-10.816407-.003906-14.945313 4.128906-4.128906 10.820312-4.128906 14.949218 0zm0 0" fill="#f9ad6a"/><path d="m148.640625 243.730469-89.851563 89.851562 59.085938 59.089844 2.644531-23.125 23.125 2.644531 2.644531-23.125 23.109376 2.628906 2.644531-23.125 23.125 2.644532 2.644531-23.125 23.125 2.644531 2.640625-23.121094 23.125 2.640625 2.644531-23.121094 23.125 2.644532 2.644532-23.125 23.121093 2.644531.636719-5.566406zm-39.480469 96.136719c-4.128906 4.125-10.816406 4.125-14.945312 0-4.125-4.128907-4.125-10.820313 0-14.945313 4.128906-4.128906 10.816406-4.128906 14.945312-.003906 4.128906 4.128906 4.128906 10.824219 0 14.949219zm0 0" fill="#ea8c46"/><path d="m279.804688 112.570312 72.636718 72.636719v-.003906l23.121094 2.644531 1.050781-9.15625-81.464843-81.464844zm0 0" fill="#ea8c46"/><path d="m255.480469 163.476562 52.957031-52.957031 9.015625 9.011719-52.957031 52.957031zm0 0" fill="#ea8c46"/><path d="m289.914062 74.601562c4.804688-4.804687 12.589844-4.804687 17.390626 0l96.570312 96.570313c4.800781 4.800781 4.800781 12.585937 0 17.386719l-.003906.003906c-4.800782 4.800781-12.585938 4.800781-17.386719 0l-96.570313-96.570312c-4.804687-4.800782-4.804687-12.585938 0-17.390626zm0 0" fill="#274d59"/><path d="m289.910156 74.605469c-1.238281 1.246093-2.191406 2.746093-2.796875 4.398437 4.5-1.6875 9.574219-.59375 12.980469 2.800782l96.566406 96.566406c3.394532 3.40625 4.488282 8.480468 2.800782 12.980468 3.933593-1.441406 6.855468-4.796874 7.746093-8.890624.894531-4.09375-.371093-8.359376-3.347656-11.304688l-96.554687-96.550781c-4.804688-4.804688-12.589844-4.804688-17.394532 0zm0 0" fill="#1b3c44"/><path d="m370.351562 11.1875-63.230468 63.230469 17.855468 17.859375 61.222657 61.21875 17.855469 17.855468 63.234374-63.230468c3.28125-3.171875 4.597657-7.867188 3.441407-12.28125-1.15625-4.414063-4.601563-7.863282-9.019531-9.019532-4.414063-1.15625-9.109376.160157-12.277344 3.441407l-3.824219 3.824219-61.226563-61.21875 3.824219-3.824219c4.785157-4.953125 4.71875-12.832031-.152343-17.703125-4.871094-4.871094-12.746094-4.9375-17.703126-.152344zm44.648438 89.1875-4.066406 4.070312c-10.191406 10.1875-26.710938 10.1875-36.902344 0-10.1875-10.191406-10.1875-26.710937 0-36.902343l4.070312-4.066407zm0 0" fill="#d36c4f"/><path d="m324.976562 92.277344 61.222657 61.21875 17.855469 17.855468 6.558593-6.554687c-.0625-.066406-.105469-.140625-.164062-.207031l-96.570313-96.5625c-.0625-.0625-.140625-.105469-.203125-.164063l-6.554687 6.554688zm0 0" fill="#c1573e"/><path d="m409.351562 105.871094c-10.347656 8.792968-25.714843 8.171875-35.316406-1.429688-9.601562-9.601562-10.226562-24.96875-1.433594-35.316406l-.078124-.078125-4.066407 4.070313c-10.191406 10.1875-10.191406 26.707031 0 36.898437 10.1875 10.191406 26.710938 10.191406 36.898438 0l4.070312-4.066406zm0 0" fill="#c1573e"/><path d="m370.351562 11.1875-10.527343 10.507812c4.953125-4.785156 12.832031-4.71875 17.703125.152344s4.9375 12.75.152344 17.703125l-3.824219 3.824219 61.222656 61.242188 3.824219-3.824219c4.957031-4.789063 12.832031-4.71875 17.703125.152343 4.871093 4.871094 4.941406 12.746094.15625 17.703126l10.527343-10.527344c3.28125-3.171875 4.597657-7.867188 3.441407-12.28125-1.15625-4.414063-4.601563-7.863282-9.019531-9.019532-4.414063-1.15625-9.109376.160157-12.277344 3.441407l-3.824219 3.824219-61.226563-61.21875 3.824219-3.824219c4.785157-4.953125 4.71875-12.832031-.152343-17.703125-4.871094-4.871094-12.746094-4.9375-17.703126-.152344zm0 0" fill="#c1573e"/><path d="m355.265625 52.976562 9.011719 9.011719 24.613281-24.617187-4.507813-4.507813 3.824219-3.824219c3.183594-3.203124 4.40625-7.867187 3.199219-12.21875zm0 0" fill="#c1573e"/><path d="m7.011719 262.34375h463.976562v161.558594h-463.976562zm0 0" fill="#d36c4f"/><g fill="#c1573e"><path d="m436.164062 262.34375h34.824219v161.558594h-34.824219zm0 0"/><path d="m81.953125 268.894531c16.449219 6.410157 32.101563 14.699219 46.648437 24.699219 19.351563 12.457031 36.558594 23.535156 63.828126 23.535156 6.988281-.039062 13.964843-.683594 20.847656-1.925781 29.699218-5.179687 52.292968-16.636719 72.234375-26.746094 20.214843-10.25 37.675781-19.105469 57.667969-19.105469v-7h-34.65625c-10.015626 4.023438-19.8125 8.574219-29.351563 13.625-20 10.140626-40.667969 20.625-68.308594 25.441407-34.800781 6.0625-51.546875-4.691407-74.691406-19.597657-10.816406-7.25-22.109375-13.757812-33.804687-19.480468h-18zm0 0"/><path d="m7 291.492188.363281 6.980468c28.890625-1.496094 54.355469 11.8125 81.328125 25.910156 27.414063 14.324219 55.753906 29.140626 90.824219 30.757813 2.042969.09375 4.085937.140625 6.125.140625 38.058594 0 75.863281-15.921875 109.414063-30.054688 26.402343-11.121093 51.375-21.632812 71.976562-22.558593 24.503906-1.15625 45.65625 6.851562 64.320312 13.875 14.648438 5.511719 27.300782 10.269531 39.625 10.269531v-14c-9.78125 0-21.328124-4.34375-34.695312-9.371094-19.921875-7.492187-42.523438-16-69.878906-14.757812-23.105469 1.039062-49.179688 12-76.796875 23.640625-35.640625 15.011719-72.527344 30.539062-109.457031 28.828125-32-1.476563-58.925782-15.566406-84.988282-29.199219-28.558594-14.9375-55.546875-28.972656-88.160156-27.457031zm0 0"/><path d="m471 395.535156-1.199219-6.894531c-.980469.164063-99.628906 16.691406-191.273437 1.414063-99.527344-16.582032-179.808594-21.738282-271.527344 3.578124v7.238282l1.882812 6.742187c90.402344-25.332031 166.472657-20.558593 267.328126-3.746093 29.046874 4.597656 58.414062 6.824218 87.820312 6.648437 35.800781 0 71.554688-2.632813 106.96875-7.882813zm0 0"/><path d="m151.890625 267.5625c13.96875 11.6875 30.210937 20.347656 47.699219 25.429688l3.636718-13.519532c-12.660156-3.796875-24.636718-9.582031-35.484374-17.132812h-11.199219zm0 0"/><path d="m469.195312 358.09375c-66.492187 17.625-240.140624.769531-241.886718.597656l-1.375 13.929688c4.679687.460937 77.8125 7.566406 147.527344 7.566406 37.105468 0 73.199218-2.023438 97.527343-8.121094v-7.199218zm0 0"/><path d="m109.914062 365.175781.617188-14c-31.085938-1.382812-70.433594-6.09375-98.972656-30.46875l-4.558594 5.335938v8.941406c31.199219 23.964844 71.140625 28.777344 102.914062 30.191406zm0 0"/><path d="m305.054688 333.054688 3.132812 13.648437c33.332031-7.648437 81.398438-15.53125 113.882812 4.191406l7.265626-11.96875c-36.847657-22.367187-88.574219-14.0625-124.28125-5.871093zm0 0"/></g><path d="m249.722656 152.546875-9.898437-9.898437 10.921875-10.921876 9.902344 9.902344zm133.328125-94 36.902344 36.902344c1.3125 1.3125 2.050781 3.089843 2.050781 4.949219 0 1.855468-.738281 3.636718-2.050781 4.949218l-4.070313 4.066406c-12.921874 12.925782-33.875 12.925782-46.796874 0-12.925782-12.921874-12.925782-33.875 0-46.796874l4.066406-4.070313c2.730468-2.738281 7.160156-2.746094 9.898437-.019531zm22 41.820313-26.9375-26.945313c-6.632812 7.566406-6.257812 18.976563.851563 26.085937 7.113281 7.113282 18.523437 7.488282 26.085937.859376zm-308.023437 330.527343h15.351562v-14h-15.351562zm380.960937-168.558593v161.558593c0 3.863281-3.128906 6.996094-6.988281 7h-340.964844v-14h333.953125v-13.230469c-33.121093 4.515626-66.511719 6.804688-99.941406 6.847657-29.402344.171875-58.773437-2.050781-87.820313-6.648438-98.933593-16.492187-174.054687-21.332031-262.214843 2.398438v10.632812h70.367187v14h-77.378906c-3.867188 0-7-3.132812-7-7v-161.550781c0-3.867188 3.132812-7 7-7h120.121094l103.84375-103.835938 9.898437 9.898438-93.933593 93.9375h120.164062l1.082031-9.484375c.449219-3.835937 3.910157-6.589844 7.75-6.164063l16.171875 1.84375 1.851563-16.171874c.207031-1.84375 1.140625-3.53125 2.597656-4.6875 1.453125-1.15625 3.308594-1.683594 5.152344-1.46875l16.167969 1.847656 1.851562-16.164063c.445312-3.835937 3.910156-6.589843 7.75-6.15625l16.171875 1.84375 1.851563-16.171875c.441406-3.835937 3.910156-6.59375 7.746093-6.15625l14.714844 1.683594-55.007813-55.015625-48 48-9.90625-9.890625 48-48-7.898437-7.898438-27.121094 27.113282-9.898437-9.898438 27.117187-27.117187-.28125-.28125c-6.535156-6.527344-7.527343-16.765625-2.371093-24.425781 5.15625-7.660157 15.019531-10.589844 23.523437-6.992188l59.289063-59.292969c7.449218-7.441406 19.441406-7.683593 27.179687-.546875 7.742187 7.132813 8.476563 19.105469 1.660156 27.132813l51.414063 51.414062c8.027344-6.789062 19.980468-6.046875 27.105468 1.683594 7.128907 7.730469 6.898438 19.703125-.523437 27.152344l-29.695313 29.699219-9.898437-9.902344 29.695313-29.695313c2.191406-2.199219 2.191406-5.757812 0-7.957031-2.226563-2.121094-5.726563-2.121094-7.953126 0l-3.835937 3.828125c-2.730469 2.730469-7.160156 2.730469-9.894531 0l-56.265625-56.277344-19.667969 19.667969-9.898438-9.902344 28.441407-28.441406c1.460937-1.410156 2.046875-3.503906 1.53125-5.472656-.515625-1.964844-2.050781-3.503906-4.019531-4.015625-1.96875-.515625-4.0625.070312-5.472657 1.535156l-58.300781 58.277344 43.515625 43.523437 43.515625 43.519532 18.800781-18.800782 9.898438 9.898438-19.808594 19.8125c3.585937 8.503906.652344 18.359375-7.003906 23.511718-7.652344 5.15625-17.886719 4.171876-24.417969-2.351562l-.886719-.886719c-1.503906 1.609375-3.683593 2.414063-5.875 2.167969l-16.136719-1.859375-1.855468 16.171875c-.203125 1.847656-1.136719 3.535156-2.589844 4.695312-1.453125 1.15625-3.308594 1.6875-5.15625 1.476563l-16.171875-1.84375-1.828125 16.160156c-.195312 1.847657-1.125 3.542969-2.582031 4.703125-1.457031 1.15625-3.320313 1.679688-5.164063 1.453125l-16.167968-1.851562-1.875 16.175781c-.25 2.199219-1.527344 4.144531-3.4375 5.253906h98.1875v14h-56.800782c-20 0-37.453125 8.855469-57.667968 19.105469-19.9375 10.109375-42.535157 21.570313-72.234376 26.75-6.882812 1.242187-13.859374 1.886719-20.851562 1.925781-27.265625 0-44.472656-11.078125-63.828125-23.535156-14.230469-9.75-29.507813-17.882812-45.542969-24.246094h-69.023437v15.0625c29.515625.632813 54.648437 13.695313 81.175781 27.5625 26.058594 13.617188 53.011719 27.722656 84.988281 29.179688 36.933594 1.710937 73.816407-13.816406 109.457031-28.828125 27.597657-11.625 53.675782-22.601563 76.800782-23.640625 27.351562-1.238282 49.949218 7.265625 69.875 14.757812 8.949218 3.726563 18.21875 6.640625 27.695312 8.707032v-42.800782h-51.640625v-14h58.636719c3.859375.007813 6.984375 3.136719 6.988281 6.996094zm-184.679687-179.039063c-.003906 1.40625.558594 2.753906 1.554687 3.742187l48.285157 48.289063 48.253906 48.253906c2.070312 2.070313 5.421875 2.070313 7.492187.003907 2.066407-2.066407 2.070313-5.421876 0-7.492188l-96.582031-96.582031c-1.515625-1.515625-3.796875-1.96875-5.777344-1.148438-1.980468.820313-3.269531 2.753907-3.269531 4.894531zm-12.125 172.046875h8.363281l-8.253906-.941406zm-151.15625 14h-14.183594c7.433594 4.195312 14.09375 8.460938 20.332031 12.476562 23.144531 14.898438 39.875 25.648438 74.691407 19.597657 27.640624-4.816407 48.3125-15.300781 68.308593-25.441407 4.46875-2.269531 8.886719-4.5 13.296875-6.621093h-113.546875c7.730469 4.203125 15.875 7.597656 24.300781 10.128906l-3.636718 13.519531c-16.589844-4.855468-32.074219-12.886718-45.601563-23.648437zm333.957031 120.1875v-15.886719c-23.976563 4.867188-56.839844 6.535157-90.527344 6.535157-69.714843 0-142.847656-7.101563-147.527343-7.566407l1.375-13.929687c1.703124.167968 166.800781 16.1875 236.679687.65625v-33.050782c-11.203125-2.035156-22.144531-5.300781-32.625-9.746093-18.664063-7.023438-39.816406-15.03125-64.320313-13.875-20.601562.921875-45.558593 11.433593-71.976562 22.558593-33.546875 14.128907-71.351562 30.070313-109.410156 30.070313-2.042969 0-4.085938-.046875-6.125-.140625-35.070313-1.601562-63.414063-16.433594-90.824219-30.757812-24.902344-13.027344-48.503906-25.335938-74.691406-25.988282v24.261719c28.3125 22.632813 66.300781 27.175781 96.519531 28.519531l-.617188 14c-29.4375-1.308594-65.890624-5.527344-95.902343-25.199218v51.824218c88.800781-23.15625 167.539062-17.910156 264.519531-1.75 78.945312 13.148438 163.023438 2.71875 185.457031-.535156zm-41.914063-38.636719 7.265626-11.96875c-36.847657-22.367187-88.574219-14.0625-124.28125-5.871093l3.132812 13.648437c33.332031-7.648437 81.398438-15.53125 113.882812 4.191406zm0 0" fill="#0c282d"/></svg>