<svg height="636" viewBox="0 -23 477.988 477" width="636" xmlns="http://www.w3.org/2000/svg"><path d="M58.79 333.582l59.085 59.09 2.645-23.125 23.125 2.644 2.644-23.125 23.11 2.63 2.644-23.126 23.129 2.645 2.644-23.125 23.125 2.644 2.645-23.12 23.125 2.64 2.644-23.121 23.125 2.644 2.645-23.125 23.121 2.645 2.645-23.125 23.125 2.644 2.644-23.125 23.125 2.645 2.645-23.125 23.12 2.644 1.048-9.156-81.45-81.472zm50.37-8.66c4.125 4.129 4.125 10.82 0 14.945-4.129 4.13-10.82 4.13-14.945 0-4.13-4.125-4.13-10.816-.004-14.945 4.129-4.129 10.82-4.129 14.95 0zm0 0" fill="#f9ad6a"/><path d="M148.64 243.73l-89.85 89.852 59.085 59.09 2.645-23.125 23.125 2.644 2.644-23.125 23.11 2.63 2.644-23.126 23.125 2.645 2.644-23.125 23.125 2.644 2.641-23.12 23.125 2.64 2.645-23.121 23.125 2.644 2.644-23.125 23.121 2.645.637-5.567zm-39.48 96.137c-4.129 4.125-10.816 4.125-14.945 0-4.125-4.129-4.125-10.82 0-14.945 4.129-4.129 10.816-4.129 14.945-.004 4.13 4.129 4.13 10.824 0 14.95zm0 0M279.805 112.57l72.636 72.637v-.004l23.122 2.645 1.05-9.157-81.465-81.464zm0 0" fill="#ea8c46"/><path d="M255.48 163.477l52.958-52.957 9.015 9.011-52.957 52.957zm0 0" fill="#ea8c46"/><path d="M289.914 74.602c4.805-4.805 12.59-4.805 17.39 0l96.571 96.57c4.8 4.8 4.8 12.586 0 17.387l-.004.004c-4.8 4.8-12.586 4.8-17.387 0l-96.57-96.57c-4.805-4.802-4.805-12.587 0-17.391zm0 0" fill="#274d59"/><path d="M289.91 74.605a12.184 12.184 0 00-2.797 4.399 12.282 12.282 0 0112.98 2.8l96.567 96.567a12.282 12.282 0 012.8 12.98 12.239 12.239 0 007.747-8.89 12.232 12.232 0 00-3.348-11.305l-96.554-96.55c-4.805-4.805-12.59-4.805-17.395 0zm0 0" fill="#1b3c44"/><path d="M370.352 11.188l-63.23 63.23 17.855 17.86 61.222 61.218 17.856 17.856 63.234-63.23a12.631 12.631 0 00-5.578-21.302 12.622 12.622 0 00-12.277 3.442l-3.825 3.824-61.226-61.219 3.824-3.824c4.785-4.953 4.719-12.832-.152-17.703-4.871-4.871-12.746-4.938-17.703-.153zM415 100.374l-4.066 4.07c-10.192 10.188-26.711 10.188-36.903 0-10.187-10.191-10.187-26.71 0-36.902l4.07-4.066zm0 0" fill="#d36c4f"/><path d="M324.977 92.277l61.222 61.22 17.856 17.855 6.558-6.555c-.062-.067-.105-.14-.164-.207l-96.57-96.563c-.063-.062-.14-.105-.203-.164l-6.555 6.555zm0 0M409.352 105.871c-10.348 8.793-25.715 8.172-35.317-1.43-9.601-9.601-10.226-24.968-1.433-35.316l-.079-.078-4.066 4.07c-10.191 10.188-10.191 26.707 0 36.899 10.188 10.191 26.711 10.191 36.898 0l4.07-4.067zm0 0M370.352 11.188l-10.528 10.507c4.953-4.785 12.832-4.718 17.703.153s4.938 12.75.153 17.703l-3.825 3.824 61.223 61.242 3.824-3.824c4.957-4.79 12.832-4.719 17.703.152 4.872 4.871 4.942 12.746.157 17.703l10.527-10.527a12.631 12.631 0 00-5.578-21.3 12.622 12.622 0 00-12.277 3.44l-3.825 3.825-61.226-61.219 3.824-3.824c4.785-4.953 4.719-12.832-.152-17.703-4.871-4.871-12.746-4.938-17.703-.153zm0 0" fill="#c1573e"/><path d="M355.266 52.977l9.011 9.011 24.614-24.617-4.508-4.508 3.824-3.824a12.568 12.568 0 003.2-12.219zm0 0" fill="#c1573e"/><path d="M7.012 262.344h463.976v161.558H7.012zm0 0" fill="#d36c4f"/><g fill="#c1573e"><path d="M436.164 262.344h34.824v161.558h-34.824zm0 0M81.953 268.895a229.353 229.353 0 0146.649 24.699c19.351 12.457 36.558 23.535 63.828 23.535 6.988-.04 13.965-.684 20.847-1.926 29.7-5.18 52.293-16.637 72.235-26.746 20.215-10.25 37.675-19.105 57.668-19.105v-7h-34.657a308.427 308.427 0 00-29.351 13.625c-20 10.14-40.668 20.625-68.309 25.441-34.8 6.062-51.547-4.691-74.691-19.598a288.279 288.279 0 00-33.805-19.48h-18zm0 0"/><path d="M7 291.492l.363 6.98c28.89-1.495 54.356 11.813 81.328 25.91 27.414 14.325 55.754 29.141 90.825 30.759 2.043.093 4.086.14 6.125.14 38.058 0 75.863-15.922 109.414-30.054 26.402-11.122 51.375-21.633 71.976-22.559 24.504-1.156 45.656 6.852 64.32 13.875 14.649 5.512 27.301 10.27 39.626 10.27v-14c-9.782 0-21.329-4.344-34.696-9.372-19.922-7.492-42.523-16-69.879-14.757-23.105 1.039-49.18 12-76.797 23.64-35.64 15.012-72.527 30.54-109.457 28.828-32-1.476-58.925-15.566-84.988-29.199C66.602 297.016 39.613 282.98 7 284.496zm0 0M471 395.535l-1.2-6.894c-.98.164-99.628 16.691-191.273 1.414C179 373.473 98.72 368.316 7 393.633v7.238l1.883 6.742c90.402-25.332 166.472-20.558 267.328-3.746a541.02 541.02 0 0087.82 6.649c35.801 0 71.555-2.633 106.969-7.883zm0 0"/><path d="M151.89 267.563a131.532 131.532 0 0047.7 25.43l3.637-13.52a124.939 124.939 0 01-35.485-17.133h-11.199zm0 0M469.195 358.094c-66.492 17.625-240.14.77-241.886.597l-1.375 13.93c4.68.461 77.812 7.566 147.527 7.566 37.105 0 73.2-2.023 97.527-8.12v-7.2zm0 0M109.914 365.176l.617-14c-31.086-1.383-70.433-6.094-98.972-30.469L7 326.043v8.941c31.2 23.965 71.14 28.778 102.914 30.192zm0 0M305.055 333.055l3.132 13.648c33.333-7.648 81.399-15.531 113.883 4.192l7.266-11.97c-36.848-22.366-88.574-14.062-124.281-5.87zm0 0"/></g><path d="M249.723 152.547l-9.899-9.899 10.922-10.921 9.902 9.902zm133.328-94l36.902 36.902a6.995 6.995 0 010 9.899l-4.07 4.066c-12.922 12.926-33.875 12.926-46.797 0-12.926-12.922-12.926-33.875 0-46.797l4.066-4.07a7.001 7.001 0 019.899-.02zm22 41.82l-26.938-26.945c-6.633 7.566-6.258 18.976.852 26.086 7.113 7.113 18.523 7.488 26.086.86zM97.027 430.895h15.352v-14H97.027zm380.961-168.56v161.56a6.998 6.998 0 01-6.988 7H130.035v-14h333.953v-13.23a746.958 746.958 0 01-99.941 6.847 541.492 541.492 0 01-87.82-6.649c-98.934-16.492-174.055-21.332-262.215 2.399v10.633h70.367v14H7c-3.867 0-7-3.133-7-7V262.344c0-3.867 3.133-7 7-7h120.121l103.844-103.836 9.898 9.898-93.933 93.938h120.164l1.082-9.485a7.023 7.023 0 017.75-6.164l16.172 1.844 1.851-16.172a6.978 6.978 0 012.598-4.687 6.979 6.979 0 015.152-1.47l16.168 1.849 1.852-16.164a7.01 7.01 0 017.75-6.157l16.172 1.844 1.851-16.172a7.003 7.003 0 017.746-6.156l14.715 1.684-55.008-55.016-48 48-9.906-9.89 48-48-7.898-7.9-27.121 27.114-9.899-9.898 27.117-27.118-.281-.28a19.293 19.293 0 0121.152-31.419L365.4 6.238c7.449-7.441 19.44-7.683 27.18-.547 7.741 7.133 8.476 19.106 1.66 27.133l51.413 51.414c8.028-6.789 19.98-6.047 27.106 1.684 7.129 7.73 6.898 19.703-.524 27.152l-29.695 29.7-9.898-9.903 29.695-29.695a5.637 5.637 0 000-7.957 5.766 5.766 0 00-7.953 0l-3.836 3.828a7 7 0 01-9.895 0L384.387 42.77l-19.668 19.667-9.899-9.902 28.442-28.441a5.626 5.626 0 00-2.489-9.489 5.62 5.62 0 00-5.472 1.536L317 74.418l43.516 43.523 43.515 43.52 18.801-18.8 9.898 9.898-19.808 19.812c3.586 8.504.652 18.36-7.004 23.512a19.296 19.296 0 01-24.418-2.352l-.887-.886a6.977 6.977 0 01-5.875 2.167l-16.136-1.859-1.856 16.172a6.986 6.986 0 01-7.746 6.172l-16.172-1.844-1.828 16.16a6.947 6.947 0 01-2.582 4.703 6.95 6.95 0 01-5.164 1.454l-16.168-1.852-1.875 16.176a6.989 6.989 0 01-3.438 5.254h98.188v14h-56.8c-20 0-37.454 8.855-57.669 19.105-19.937 10.11-42.535 21.57-72.234 26.75a121.216 121.216 0 01-20.852 1.926c-27.265 0-44.472-11.078-63.828-23.535a231.947 231.947 0 00-45.543-24.246H14.012v15.062c29.515.633 54.648 13.695 81.175 27.563 26.06 13.617 53.012 27.722 84.989 29.18 36.933 1.71 73.816-13.817 109.457-28.829 27.597-11.625 53.676-22.601 76.8-23.64 27.352-1.239 49.95 7.265 69.876 14.757a161.615 161.615 0 0027.695 8.707v-42.8h-51.64v-14H471a7.003 7.003 0 016.988 6.996zM293.308 83.298a5.254 5.254 0 001.555 3.742l48.285 48.29 48.254 48.253a5.299 5.299 0 007.493.004 5.299 5.299 0 000-7.492l-96.582-96.582a5.298 5.298 0 00-9.047 3.746zm-12.124 172.047h8.363l-8.254-.942zm-151.157 14h-14.183c7.433 4.195 14.094 8.46 20.332 12.476 23.144 14.899 39.875 25.649 74.691 19.598 27.64-4.816 48.313-15.3 68.309-25.441 4.469-2.27 8.887-4.5 13.297-6.622H178.926a127.937 127.937 0 0024.3 10.13l-3.636 13.519a133.456 133.456 0 01-45.602-23.649zM463.984 389.53v-15.886c-23.976 4.867-56.84 6.535-90.527 6.535-69.715 0-142.848-7.102-147.527-7.567l1.375-13.93c1.703.169 166.8 16.188 236.68.657v-33.05a154.062 154.062 0 01-32.626-9.747c-18.664-7.023-39.816-15.031-64.32-13.875-20.601.922-45.559 11.434-71.976 22.559-33.547 14.128-71.352 30.07-109.41 30.07-2.044 0-4.087-.047-6.126-.14-35.07-1.602-63.414-16.434-90.824-30.759-24.902-13.027-48.504-25.336-74.691-25.988v24.262c28.312 22.633 66.3 27.176 96.52 28.52l-.618 14c-29.437-1.31-65.89-5.528-95.902-25.2v51.824c88.8-23.156 167.539-17.91 264.52-1.75 78.945 13.149 163.023 2.72 185.456-.535zm-41.914-38.636l7.266-11.97c-36.848-22.366-88.574-14.062-124.281-5.87l3.132 13.648c33.333-7.648 81.399-15.531 113.883 4.192zm0 0" fill="#0c282d"/></svg>