<svg xmlns="http://www.w3.org/2000/svg" viewBox="0 0 512.002 512.002"><path d="M448.924 376.256c-12.604-27.441-45.068-39.469-72.509-26.865a54.574 54.574 0 00-15.059 10.257l91.585 49.642a54.404 54.404 0 00-4.017-33.034z" fill="#ff7161"/><path d="M427.209 411.423c-2.391-30.103-28.733-52.568-58.836-50.176a54.522 54.522 0 00-17.668 4.449l68.908 78.127a54.413 54.413 0 007.596-32.4z" fill="#ff6c5c"/><g fill="#ff7161"><path d="M381.061 452.099c15.213-26.086 6.398-59.565-19.687-74.778a54.554 54.554 0 00-17.048-6.428l12.009 103.479a54.406 54.406 0 0024.726-22.273zM63.076 376.256c12.604-27.441 45.068-39.469 72.509-26.865a54.574 54.574 0 0115.059 10.257L59.06 409.291a54.413 54.413 0 014.016-33.035z"/></g><path d="M84.791 411.423c2.391-30.103 28.733-52.568 58.836-50.176a54.522 54.522 0 0117.668 4.449l-68.908 78.127a54.413 54.413 0 01-7.596-32.4z" fill="#ff6c5c"/><g fill="#ff7161"><path d="M130.939 452.099c-15.213-26.086-6.398-59.565 19.687-74.778a54.554 54.554 0 0117.048-6.428l-12.009 103.479a54.416 54.416 0 01-24.726-22.273zM395.018 322.069l-39.036-24.842 53.86-84.638 39.037 24.841zM63.124 237.425l39.036-24.841 53.86 84.638-39.036 24.841z"/></g><path d="M86.811 38.953L76.324 164.368 40.043 37.614C14.333 54.92 1.542 103.312 10.91 156.641c11.053 62.916 48.761 108.87 84.223 102.64 35.462-6.23 55.249-62.283 44.197-125.201-7.741-44.064-28.558-79.803-52.519-95.127z" fill="#ff6c5c"/><path d="M111.957 241.792c-35.462 6.23-73.17-39.724-84.223-102.64-7.044-40.094-1.559-77.394 12.522-100.794l-.212-.743C14.333 54.921 1.542 103.314 10.91 156.641c11.053 62.916 48.761 108.87 84.223 102.64 12.382-2.176 22.85-10.431 30.765-22.926-4.312 2.711-8.972 4.564-13.941 5.437z" fill="#ff4a36"/><path d="M425.189 38.953l10.487 125.414 36.281-126.753c25.71 17.307 38.501 65.699 29.133 119.028-11.053 62.916-48.761 108.87-84.223 102.64-35.462-6.23-55.249-62.283-44.197-125.201 7.741-44.065 28.558-79.804 52.519-95.128z" fill="#ff6c5c"/><path d="M437.897 250.888c-35.462-6.229-55.25-62.283-44.197-125.2 5.452-31.034 17.394-57.925 32.347-76.477l-.858-10.257c-23.962 15.325-44.778 51.064-52.519 95.129-11.053 62.916 8.735 118.971 44.197 125.2 10.979 1.928 22.173-1.149 32.725-8.179-3.9.522-7.811.467-11.695-.216z" fill="#ff4a36"/><path d="M256 222.414c-68.235 0-126.733 41.668-151.454 100.944C129.267 382.634 187.764 424.301 256 424.301s126.733-41.668 151.454-100.944C382.733 264.081 324.235 222.414 256 222.414z" fill="#ff6c5c"/><path d="M256 398.664c-63.201 0-118.043-35.75-145.436-88.125a163.325 163.325 0 00-6.018 12.819C129.267 382.634 187.764 424.301 256 424.301s126.733-41.668 151.454-100.944a162.797 162.797 0 00-6.018-12.819c-27.391 52.376-82.235 88.126-145.436 88.126z" fill="#ff4a36"/><g fill="#ff6c5c"><circle cx="293.852" cy="176.148" r="16.824"/><circle cx="218.144" cy="176.148" r="16.824"/></g><g fill="#ff4a36"><circle cx="331.706" cy="301.928" r="12.618"/><circle cx="268.616" cy="276.692" r="12.618"/><circle cx="260.204" cy="339.782" r="12.618"/><circle cx="205.526" cy="293.516" r="12.618"/><circle cx="159.26" cy="318.752" r="12.618"/></g><path d="M476.361 31.072c-4.375-2.946-10.537-.685-11.985 4.372l-24.428 85.346-6.898-82.494c-.486-5.802-7.188-9.133-12.108-5.986-26.683 17.065-48.155 55.537-56.038 100.407-5.577 31.744-3.806 62.942 4.986 87.849 3.037 8.603 6.804 16.146 11.19 22.542l-9.91 15.574a171.318 171.318 0 00-73.634-39.106v-18.991c11.886-1.782 21.03-12.061 21.03-24.435 0-13.625-11.085-24.71-24.71-24.71s-24.71 11.085-24.71 24.71c0 9.234 5.095 17.296 12.618 21.537v18.761a173.53 173.53 0 00-25.762-1.918c-8.72 0-17.327.652-25.762 1.918v-18.761c7.523-4.241 12.618-12.303 12.618-21.537 0-13.625-11.085-24.71-24.71-24.71s-24.71 11.085-24.71 24.71c0 12.375 9.144 22.652 21.03 24.435v18.991a171.312 171.312 0 00-73.634 39.106l-9.91-15.574c4.386-6.395 8.153-13.939 11.19-22.542 8.792-24.907 10.562-56.104 4.986-87.849-7.882-44.87-29.355-83.343-56.038-100.407-4.92-3.146-11.622.184-12.108 5.986l-6.898 82.494-24.431-85.345c-1.448-5.058-7.61-7.319-11.985-4.372C6.789 50.494-6.574 102.69 3.143 158.007c5.576 31.743 17.874 60.47 34.629 80.888 10.495 12.79 22.055 21.501 33.893 25.783a7.875 7.875 0 001.029 2.485l28.403 44.634a173.74 173.74 0 00-3.83 8.526 7.876 7.876 0 000 6.07 174.923 174.923 0 005.051 11.005c-20.146 3.437-37.707 16.621-46.409 35.567-5.46 11.889-7.05 24.962-4.597 37.807.982 5.146 6.882 7.96 11.504 5.454l14.346-7.776a62.706 62.706 0 00-.233 2.35c-1.036 13.042 1.971 25.864 8.695 37.079 2.698 4.499 9.206 5.099 12.679 1.161l17.481-19.82a62.452 62.452 0 008.344 26.853c6.592 11.303 16.377 20.116 28.298 25.489 4.796 2.16 10.471-1.075 11.074-6.282l7.592-65.418c25.32 14.356 54.413 22.324 84.91 22.324 10.36 0 20.74-.93 30.848-2.761a7.886 7.886 0 006.353-9.167 7.882 7.882 0 00-9.167-6.353 157.555 157.555 0 01-28.035 2.509c-62.134 0-117.853-36.417-142.871-93.058 25.018-56.641 80.737-93.058 142.871-93.058s117.853 36.414 142.871 93.057c-16.727 37.803-48.205 67.841-86.818 82.697a7.886 7.886 0 005.664 14.721 170.222 170.222 0 0023.182-11.004l7.602 65.509c.605 5.206 6.28 8.44 11.074 6.282 11.921-5.373 21.706-14.187 28.298-25.489a62.43 62.43 0 008.344-26.852l17.48 19.82c3.473 3.938 9.981 3.337 12.679-1.161 6.724-11.215 9.731-24.036 8.695-37.079a64.66 64.66 0 00-.233-2.35l14.346 7.776c4.622 2.507 10.522-.308 11.504-5.454 2.453-12.845.864-25.917-4.597-37.807-8.705-18.952-26.273-32.137-46.426-35.569a169.115 169.115 0 005.068-11.003 7.876 7.876 0 000-6.07 174.787 174.787 0 00-3.83-8.526l28.403-44.634a7.86 7.86 0 001.029-2.486c11.838-4.282 23.399-12.993 33.893-25.782 16.755-20.418 29.053-49.144 34.629-80.888 9.716-55.316-3.646-107.512-32.497-126.934zM293.854 167.21c4.928 0 8.938 4.009 8.938 8.938 0 4.928-4.009 8.938-8.938 8.938-4.928 0-8.938-4.009-8.938-8.938s4.01-8.938 8.938-8.938zm-84.646 8.938c0-4.928 4.009-8.938 8.938-8.938s8.938 4.009 8.938 8.938c0 4.928-4.009 8.938-8.938 8.938s-8.938-4.011-8.938-8.938zm-190.53-20.87c-7.421-42.247-.197-83.09 17.24-103.418l32.824 114.678c1.049 3.669 4.708 6.104 8.496 5.661 3.682-.43 6.636-3.478 6.945-7.174l9.253-110.662c17.844 17.481 32.247 47.614 38.127 81.083 10.108 57.541-7.199 110.694-37.793 116.07-30.603 5.372-64.984-38.697-75.092-96.238zm73.008 112.348a45.64 45.64 0 004.813-.576c8.668-1.523 16.609-5.47 23.591-11.586l9.282 14.585a171.628 171.628 0 00-19.627 25.955l-18.059-28.378zm-9.021 119.899l-16.633 9.016a46.535 46.535 0 014.21-16.992c7.331-15.961 23.064-26.457 40.503-27.224a171.524 171.524 0 003.913 5.908c-13.477 5.772-24.361 16.057-30.956 28.833-.351.13-.699.276-1.037.459zm11.882 41.927a46.58 46.58 0 01-1.895-17.404c1.499-18.878 14.213-34.889 32.003-40.745a171.54 171.54 0 008.71 9.567 62.162 62.162 0 00-12.983 19.681 7.913 7.913 0 00-1.502 1.31l-24.333 27.591zm54.691 31.885a46.557 46.557 0 01-11.487-13.211c-10.751-18.434-7.627-41.623 7.181-56.515a172.196 172.196 0 0011.373 8.831l-7.067 60.895zm225.012-13.211a46.533 46.533 0 01-11.488 13.211l-7.082-61.023a173.445 173.445 0 0011.292-8.798c14.888 14.889 18.049 38.136 7.278 56.61zm43.204-18.674l-24.335-27.59a7.851 7.851 0 00-1.502-1.309 62.174 62.174 0 00-13.073-19.771 173.76 173.76 0 008.686-9.513c17.849 5.824 30.614 21.863 32.117 40.78a46.561 46.561 0 01-1.893 17.403zm24.304-49.903a46.52 46.52 0 014.21 16.992l-16.633-9.016a8.21 8.21 0 00-1.038-.46c-6.608-12.799-17.52-23.098-31.031-28.864a172.965 172.965 0 003.916-5.882c17.467.743 33.235 11.248 40.576 27.23zm-59.129-109.5l9.282-14.585c6.982 6.115 14.924 10.063 23.591 11.586 1.6.282 3.205.466 4.813.576l-18.058 28.378a171.65 171.65 0 00-19.628-25.955zm110.693-114.771c-9.549 54.351-40.755 96.685-69.971 96.681-1.714 0-3.425-.146-5.121-.444-30.595-5.374-47.902-58.529-37.794-116.07 5.88-33.469 20.283-63.602 38.127-81.083l9.253 110.662c.309 3.697 3.263 6.743 6.945 7.174 3.794.444 7.445-1.987 8.496-5.661l32.825-114.678c17.437 20.327 24.662 61.171 17.24 103.419z"/></svg>