<svg height="512" viewBox="0 0 64 64" width="512" xmlns="http://www.w3.org/2000/svg"><g id="mobile_coding" data-name="mobile coding"><rect fill="#57a4ff" height="58" rx="2" width="34" x="3" y="3"/><path d="m37 5v54a2.006 2.006 0 0 1 -2 2h-2a2.006 2.006 0 0 0 2-2v-54a2.006 2.006 0 0 0 -2-2h2a2.006 2.006 0 0 1 2 2z" fill="#2488ff"/><rect fill="#ffdaaa" height="38" rx="2" width="54" x="7" y="19"/><path d="m61 21v34a2.006 2.006 0 0 1 -2 2h-2a2.006 2.006 0 0 0 2-2v-34a2.006 2.006 0 0 0 -2-2h2a2.006 2.006 0 0 1 2 2z" fill="#ffc477"/><path d="m31 3v2a2.006 2.006 0 0 1 -2 2h-18a2.006 2.006 0 0 1 -2-2v-2z" fill="#ffeb99"/><path d="m59 18h-21v-13a3 3 0 0 0 -3-3h-30a3 3 0 0 0 -3 3v54a3 3 0 0 0 3 3h30a3 3 0 0 0 3-3v-1h21a3 3 0 0 0 3-3v-34a3 3 0 0 0 -3-3zm-49-14h20v1a1 1 0 0 1 -1 1h-18a1 1 0 0 1 -1-1zm26 55a1 1 0 0 1 -1 1h-30a1 1 0 0 1 -1-1v-54a1 1 0 0 1 1-1h3v1a3 3 0 0 0 3 3h18a3 3 0 0 0 3-3v-1h3a1 1 0 0 1 1 1v13h-27a3 3 0 0 0 -3 3v34a3 3 0 0 0 3 3h27zm24-4a1 1 0 0 1 -1 1h-50a1 1 0 0 1 -1-1v-34a1 1 0 0 1 1-1h50a1 1 0 0 1 1 1z"/><path d="m10 22h2v2h-2z"/><path d="m10 26h2v2h-2z"/><path d="m10 30h2v2h-2z"/><path d="m56 44h2v2h-2z"/><path d="m56 48h2v2h-2z"/><path d="m56 52h2v2h-2z"/><path d="m28.293 37.707 1.414-1.414-5.293-5.293 5.293-5.293-1.414-1.414-6 6a1 1 0 0 0 0 1.414z"/><path d="m39.707 24.293-1.414 1.414 5.293 5.293-5.293 5.293 1.414 1.414 6-6a1 1 0 0 0 0-1.414z"/><path d="m22 50h20v2h-20z"/><path d="m44 50h2v2h-2z"/><path d="m22 46h2v2h-2z"/><path d="m26 46h20v2h-20z"/><path d="m22 42h20v2h-20z"/><path d="m44 42h2v2h-2z"/><path d="m25.456 30h17.088v2h-17.088z" transform="matrix(.351 -.936 .936 .351 -6.962 51.955)"/><path d="m10 14h14v2h-14z"/><path d="m6 14h2v2h-2z"/><path d="m18 10h12v2h-12z"/><path d="m6 10h10v2h-10z"/><path d="m32 10h2v2h-2z"/><path d="m26 14h8v2h-8z"/></g></svg>