<svg height="180px" viewBox="0 0 180 180" width="180px" xmlns="http://www.w3.org/2000/svg"><g data-name="mobile coding"><rect fill="#57a4ff" height="58" rx="2" width="34" x="3" y="3"/><path d="M37 5v54a2.006 2.006 0 01-2 2h-2a2.006 2.006 0 002-2V5a2.006 2.006 0 00-2-2h2a2.006 2.006 0 012 2z" fill="#2488ff"/><rect fill="#ffdaaa" height="38" rx="2" width="54" x="7" y="19"/><path d="M61 21v34a2.006 2.006 0 01-2 2h-2a2.006 2.006 0 002-2V21a2.006 2.006 0 00-2-2h2a2.006 2.006 0 012 2z" fill="#ffc477"/><path d="M31 3v2a2.006 2.006 0 01-2 2H11a2.006 2.006 0 01-2-2V3z" fill="#ffeb99"/><path d="M59 18H38V5a3 3 0 00-3-3H5a3 3 0 00-3 3v54a3 3 0 003 3h30a3 3 0 003-3v-1h21a3 3 0 003-3V21a3 3 0 00-3-3zM10 4h20v1a1 1 0 01-1 1H11a1 1 0 01-1-1zm26 55a1 1 0 01-1 1H5a1 1 0 01-1-1V5a1 1 0 011-1h3v1a3 3 0 003 3h18a3 3 0 003-3V4h3a1 1 0 011 1v13H9a3 3 0 00-3 3v34a3 3 0 003 3h27zm24-4a1 1 0 01-1 1H9a1 1 0 01-1-1V21a1 1 0 011-1h50a1 1 0 011 1z"/><path d="M10 22h2v2h-2zM10 26h2v2h-2zM10 30h2v2h-2zM56 44h2v2h-2zM56 48h2v2h-2zM56 52h2v2h-2zM28.293 37.707l1.414-1.414L24.414 31l5.293-5.293-1.414-1.414-6 6a1 1 0 000 1.414zM39.707 24.293l-1.414 1.414L43.586 31l-5.293 5.293 1.414 1.414 6-6a1 1 0 000-1.414zM22 50h20v2H22zM44 50h2v2h-2zM22 46h2v2h-2zM26 46h20v2H26zM22 42h20v2H22zM44 42h2v2h-2zM30.053 38.658l5.998-15.994 1.872.702-5.998 15.994zM10 14h14v2H10zM6 14h2v2H6zM18 10h12v2H18zM6 10h10v2H6zM32 10h2v2h-2zM26 14h8v2h-8z"/></g></svg>