<?xml version="1.0" encoding="iso-8859-1"?>
<!-- Generator: Adobe Illustrator 19.0.0, SVG Export Plug-In . SVG Version: 6.00 Build 0)  -->
<svg version="1.1" id="Capa_1" xmlns="http://www.w3.org/2000/svg" xmlns:xlink="http://www.w3.org/1999/xlink" x="0px" y="0px"
	 viewBox="0 0 498.036 498.036" style="enable-background:new 0 0 498.036 498.036;" xml:space="preserve">
<path style="fill:#4FBF9F;" d="M466.23,7.758H31.806c-13.188,0-23.273,10.085-23.273,23.273v74.473h480.97V31.03
	C489.503,18.618,479.418,7.758,466.23,7.758z"/>
<path style="fill:#193651;" d="M489.503,113.261H8.533c-4.655,0-7.758-3.103-7.758-7.758V31.03C0.776,13.964,14.739,0,31.806,0
	H466.23c17.067,0,31.03,13.964,31.03,31.03v74.473C497.261,109.382,494.158,113.261,489.503,113.261z M16.291,97.745h465.455V31.03
	c0-8.533-6.982-15.515-15.515-15.515H31.806c-8.533,0-15.515,6.982-15.515,15.515V97.745z"/>
<g>
	<rect x="39.564" y="38.788" style="fill:#FFFFFF;" width="418.909" height="35.685"/>
	<path style="fill:#FFFFFF;" d="M8.533,97.745v310.303c0,13.188,10.085,23.273,23.273,23.273H466.23
		c13.188,0,23.273-10.085,23.273-23.273V97.745H8.533z"/>
</g>
<path style="fill:#193651;" d="M466.23,439.079H31.806c-17.067,0-31.03-13.964-31.03-31.03V97.745c0-4.655,3.103-7.758,7.758-7.758
	h480.97c4.655,0,7.758,3.103,7.758,7.758v310.303C497.261,425.115,483.297,439.079,466.23,439.079z M16.291,105.503v302.545
	c0,8.533,6.982,15.515,15.515,15.515H466.23c8.533,0,15.515-6.982,15.515-15.515V105.503H16.291z"/>
<path style="fill:#F16051;" d="M280.824,128.776c-16.291,0-29.479,13.188-29.479,29.479v242.036
	c0-16.291,13.188-29.479,29.479-29.479h181.527V128.776H280.824z"/>
<path style="fill:#FDBF5E;" d="M221.867,128.776c16.291,0,29.479,13.188,29.479,29.479v242.036
	c0-16.291-13.188-29.479-29.479-29.479H39.564V128.776H221.867z"/>
<g>
	<rect x="288.582" y="166.012" style="fill:#FFFFFF;" width="138.085" height="90.764"/>
	<rect x="288.582" y="278.497" style="fill:#FFFFFF;" width="138.085" height="7.758"/>
	<rect x="288.582" y="310.303" style="fill:#FFFFFF;" width="138.085" height="7.758"/>
	<rect x="288.582" y="342.109" style="fill:#FFFFFF;" width="138.085" height="7.758"/>
</g>
<polygon style="fill:#2EA2DB;" points="340.558,192.388 340.558,231.176 373.915,211.782 "/>
<g>
	<rect x="146.618" y="48.873" style="fill:#193651;" width="15.515" height="15.515"/>
	<rect x="104.727" y="48.873" style="fill:#193651;" width="15.515" height="15.515"/>
	<rect x="62.836" y="48.873" style="fill:#193651;" width="15.515" height="15.515"/>
</g>
<path style="fill:#FFFFFF;" d="M78.352,415.806l41.115,72.145c1.552,2.327,5.43,2.327,6.982,0l41.115-72.145V273.842H78.352V415.806
	z"/>
<path style="fill:#193651;" d="M122.57,498.036c-3.879,0-7.758-2.327-10.085-6.206l-41.891-73.697V266.085h103.952v152.048
	l-41.891,73.697C131.103,495.709,127.224,498.036,122.57,498.036z M86.109,414.255l36.461,64.388l36.461-64.388V281.6H86.109
	V414.255z"/>
<rect x="107.055" y="280.824" style="fill:#2EA2DB;" width="30.255" height="135.758"/>
<path style="fill:#FDBF5E;" d="M78.352,416.582l41.115,71.37c1.552,2.327,5.43,2.327,6.982,0l41.115-71.37"/>
<path style="fill:#193651;" d="M122.57,498.036c-3.879,0-7.758-2.327-10.085-6.206l-41.115-71.37l13.188-7.758l37.236,65.939
	l37.236-65.939l13.188,7.758l-39.564,71.37C131.103,495.709,127.224,498.036,122.57,498.036z"/>
<path style="fill:#F16051;" d="M148.945,211.006H95.418c-10.085,0-17.842,7.758-17.842,17.842v45.77h88.436v-45.77
	C166.788,218.764,159.03,211.006,148.945,211.006z"/>
<g>
	<path style="fill:#193651;" d="M174.545,281.6H70.594v-53.527c0-13.964,11.636-25.6,25.6-25.6h53.527
		c13.964,0,25.6,11.636,25.6,25.6V281.6H174.545z M86.109,266.085h72.921v-38.012c0-5.43-4.655-10.085-10.085-10.085H95.418
		c-5.43,0-10.085,4.655-10.085,10.085v38.012H86.109z"/>
	<path style="fill:#193651;" d="M105.503,463.903l13.964,24.824c1.552,2.327,5.43,2.327,6.982,0l13.964-24.824H105.503z"/>
	<path style="fill:#193651;" d="M122.57,498.036c-3.879,0-7.758-2.327-10.085-6.206L91.539,455.37h61.285l-20.17,36.461
		C131.103,495.709,127.224,498.036,122.57,498.036z M118.691,471.661l3.879,6.982l3.879-6.982H118.691z"/>
</g>
<g>
</g>
<g>
</g>
<g>
</g>
<g>
</g>
<g>
</g>
<g>
</g>
<g>
</g>
<g>
</g>
<g>
</g>
<g>
</g>
<g>
</g>
<g>
</g>
<g>
</g>
<g>
</g>
<g>
</g>
</svg>
