<svg viewBox="0 0 64 64" xmlns="http://www.w3.org/2000/svg"><g data-name="Day 07"><path d="M58.5 30.5a1.62 1.62 0 010 .22c-.06 5.62-2.9 10.81-6 15A20.88 20.88 0 0053 41a24.43 24.43 0 00-.53-5.24C49.41 21.83 34 23 31 23s-12.4-.38-17.17 6.89C12.11 32.49 11 36.07 11 41a23.47 23.47 0 00.43 4.57A25.81 25.81 0 016 30.5a24.75 24.75 0 014.15-13.71A26.28 26.28 0 0132 5c14.08 0 26.5 11.42 26.5 25.5z" data-name="&lt;Path&gt;" fill="#299ac2"/><path d="M58.5 30.5a1.62 1.62 0 010 .22 24.16 24.16 0 01-6 5 31.14 31.14 0 01-16 4.28c-9.61 0-18-4-22.67-10.11A17.8 17.8 0 0110 19a16.19 16.19 0 01.15-2.21A26.28 26.28 0 0132 5c14.08 0 26.5 11.42 26.5 25.5z" data-name="&lt;Path&gt;" fill="#32bded"/><circle cx="31.5" cy="23.5" data-name="&lt;Path&gt;" fill="#4d6dbd" r="15.5" stroke="#001c63" stroke-linecap="round" stroke-linejoin="round" stroke-width="2"/><path d="M41 20.5a9.47 9.47 0 11-.06-1.09A9.82 9.82 0 0141 20.5z" data-name="&lt;Path&gt;" fill="#d44665"/><path d="M40.94 19.41a9.5 9.5 0 01-16.88-4.82 9.5 9.5 0 0116.88 4.82z" data-name="&lt;Path&gt;" fill="#f25073"/><circle cx="31.5" cy="20.5" data-name="&lt;Path&gt;" fill="none" r="9.5" stroke="#001c63" stroke-linecap="round" stroke-linejoin="round" stroke-width="2"/><path data-name="&lt;Path&gt;" fill="#fff" d="M34.41 13.17L32 15.59l-2.41-2.42-2.42 2.42L29.59 18l-2.42 2.41 2.42 2.42L32 20.41l2.41 2.42 2.42-2.42L34.41 18l2.42-2.41-2.42-2.42z"/><path d="M11 41c0-18.7 16-18 20-18 3.33 0 22-1.44 22 18a20.83 20.83 0 01-.54 4.72c3.16-4.25 6-9.51 6-15.22C58.5 16.42 46.08 5 32 5S6 16.42 6 30.5c0 5.64 2.33 10.85 5.43 15.07A23.19 23.19 0 0111 41z" data-name="&lt;Path&gt;" fill="none" stroke="#001c63" stroke-linecap="round" stroke-linejoin="round" stroke-width="2"/><path d="M53 41a14.59 14.59 0 01-2.25 8.42c-3 4.37-9 6.58-18.75 6.58-15.55 0-21-5.06-21-15 0-7.69 2.71-12.1 6.18-14.62C22.14 22.76 28.65 23 31 23c3.33 0 22-1.44 22 18z" data-name="&lt;Path&gt;" fill="#edc5b6"/><path d="M53 41a14.59 14.59 0 01-2.25 8.42C47.34 51.8 42.17 53 35 53c-15.55 0-21-5.06-21-15 0-5.26 1.27-9 3.18-11.62C22.14 22.76 28.65 23 31 23c3.33 0 22-1.44 22 18z" data-name="&lt;Path&gt;" fill="#edd7cf"/><path d="M53 41c0 9.94-6.28 15-21 15-15.55 0-21-5.06-21-15 0-18.7 16-18 20-18 3.33 0 22-1.44 22 18z" data-name="&lt;Path&gt;" fill="none" stroke="#001c63" stroke-linecap="round" stroke-linejoin="round" stroke-width="2"/><path d="M12.11 31s-1.88 11.64-5.59 19.2A4.52 4.52 0 006 52.85 2.32 2.32 0 008.11 55c2.85.41 5.56-11.72 6-18s-2-6-2-6zM51.89 31s1.88 11.64 5.59 19.2a4.52 4.52 0 01.52 2.65A2.32 2.32 0 0155.89 55c-2.85.41-5.56-11.72-6-18s2-6 2-6z" data-name="&lt;Path&gt;" fill="#4d6dbd" stroke="#001c63" stroke-linecap="round" stroke-linejoin="round" stroke-width="2"/><path d="M54.42 32.19C46 32.19 39.72 29 32.26 29s-13.87 3.16-22.17 3.16a4.23 4.23 0 01-.43-4c.29-1 .72-1.93.94-3 11.72 0 13.51-5.45 21.66-5.45s9.17 5.45 20.62 5.45A21.79 21.79 0 0154.4 29a5.76 5.76 0 01.02 3.19z" data-name="&lt;Path&gt;" fill="#d44665"/><path d="M54.4 29c-8.4 0-14.69-3.15-22.14-3.15S18.39 29 10.09 29a4.06 4.06 0 01-.43-.78c.29-1 .72-1.93.94-3 11.72 0 13.51-5.45 21.66-5.45s9.17 5.45 20.62 5.45A21.79 21.79 0 0154.4 29z" data-name="&lt;Path&gt;" fill="#f25073"/><path d="M54.42 32.19C46 32.19 39.72 29 32.26 29s-13.87 3.15-22.17 3.15c-1.67-2.41 0-4.53.52-6.93 11.72 0 13.51-5.44 21.65-5.44s9.18 5.44 20.62 5.44c1.19 2.57 2.22 4.66 1.54 6.97zM22.57 26c-3 1.29-6.12 3.34-12.57 3M27 25a9.1 9.1 0 00-2 .2M39 43s1.06 3.86-2.17 3.86C33.75 46.86 32 45 32 44a4 4 0 01-3.83 2.86C24.44 46.86 26 43 26 43" data-name="&lt;Path&gt;" fill="none" stroke="#001c63" stroke-linecap="round" stroke-linejoin="round" stroke-width="2"/><path d="M37 47l-.59 5.07-.41 3.58a4 4 0 01-8 0l-.41-3.58L27 47s4.06.62 5-3c.81 3.25 5 3 5 3z" data-name="&lt;Path&gt;" fill="#873759" stroke="#001c63" stroke-linecap="round" stroke-linejoin="round" stroke-width="2"/><path d="M36.41 52.07L36 55.65a4 4 0 01-8 0l-.41-3.58A7.07 7.07 0 0132 50.5a6.88 6.88 0 014.41 1.57z" data-name="&lt;Path&gt;" fill="#c45050"/><path d="M36.41 52.07L36 55.65a4 4 0 01-1.29 2.93 3.35 3.35 0 01-.71.07 4 4 0 01-4-4l-.41-3.58a2.7 2.7 0 01.34-.25A6.74 6.74 0 0132 50.5a6.88 6.88 0 014.41 1.57z" data-name="&lt;Path&gt;" fill="#e85f5f"/><path d="M36.41 52.07L36 55.65a4 4 0 01-8 0l-.41-3.58a7 7 0 018.82 0zM18 36s2.5-3.42 6 0M46 36s-2.5-3.42-6 0" data-name="&lt;Path&gt;" fill="none" stroke="#001c63" stroke-linecap="round" stroke-linejoin="round" stroke-width="2"/><ellipse cx="21" cy="39.5" data-name="&lt;Path&gt;" fill="#f25073" rx="3" ry="1.5"/><ellipse cx="43" cy="39.5" data-name="&lt;Path&gt;" fill="#f25073" rx="3" ry="1.5"/><path d="M32 44s-3-1.9-3-3h0a2 2 0 012-2h2a2 2 0 012 2h0c0 1.1-3 3-3 3z" data-name="&lt;Path&gt;" fill="#873759" stroke="#001c63" stroke-linecap="round" stroke-linejoin="round" stroke-width="2"/><circle cx="19.5" cy="20.75" data-name="&lt;Path&gt;" fill="#32bded" r=".5"/><circle cx="20.5" cy="16.25" data-name="&lt;Path&gt;" fill="#32bded" r=".5"/><circle cx="43.5" cy="20.75" data-name="&lt;Path&gt;" fill="#32bded" r=".5"/><circle cx="42.5" cy="16.25" data-name="&lt;Path&gt;" fill="#32bded" r=".5"/><path d="M17 3a2 2 0 00-2 2v.51c0 1.2 0 2.21-2 2.49V4a2 2 0 00-4 0v7.1c0 1 .15 2.9-.9 2.9H7V4a2 2 0 00-4 0v12.27C3 20 7 24 10.73 24H14a2 2 0 000-4h-3.27c-1.25 0-2.3-1.35-2.62-2.5 2.95 0 4.89-2.44 5.32-5.27C16.81 12 19 8.95 19 5.51V5a2 2 0 00-2-2zM47 3a2 2 0 012 2v.51c0 1.2 0 2.21 2 2.49V4a2 2 0 014 0v7.1c0 1-.15 2.9.9 2.9H57V4a2 2 0 014 0v12.27C61 20 57 24 53.27 24H50a2 2 0 010-4h3.27c1.25 0 2.3-1.35 2.62-2.5-2.95 0-4.89-2.44-5.32-5.27C47.19 12 45 8.95 45 5.51V5a2 2 0 012-2z" data-name="&lt;Path&gt;" fill="#c9886d" stroke="#001c63" stroke-linecap="round" stroke-linejoin="round" stroke-width="2"/></g></svg>
