<svg xmlns="http://www.w3.org/2000/svg" viewBox="0 0 498.036 498.036"><path d="M466.23 7.758H31.806c-13.188 0-23.273 10.085-23.273 23.273v74.473h480.97V31.03c0-12.412-10.085-23.272-23.273-23.272z" fill="#4fbf9f"/><path d="M489.503 113.261H8.533c-4.655 0-7.758-3.103-7.758-7.758V31.03C.776 13.964 14.739 0 31.806 0H466.23c17.067 0 31.03 13.964 31.03 31.03v74.473c.001 3.879-3.102 7.758-7.757 7.758zM16.291 97.745h465.455V31.03c0-8.533-6.982-15.515-15.515-15.515H31.806c-8.533 0-15.515 6.982-15.515 15.515v66.715z" fill="#193651"/><g fill="#fff"><path d="M39.564 38.788h418.909v35.685H39.564zM8.533 97.745v310.303c0 13.188 10.085 23.273 23.273 23.273H466.23c13.188 0 23.273-10.085 23.273-23.273V97.745H8.533z"/></g><path d="M466.23 439.079H31.806c-17.067 0-31.03-13.964-31.03-31.03V97.745c0-4.655 3.103-7.758 7.758-7.758h480.97c4.655 0 7.758 3.103 7.758 7.758v310.303c-.001 17.067-13.965 31.031-31.032 31.031zM16.291 105.503v302.545c0 8.533 6.982 15.515 15.515 15.515H466.23c8.533 0 15.515-6.982 15.515-15.515V105.503H16.291z" fill="#193651"/><path d="M280.824 128.776c-16.291 0-29.479 13.188-29.479 29.479v242.036c0-16.291 13.188-29.479 29.479-29.479h181.527V128.776H280.824z" fill="#f16051"/><path d="M221.867 128.776c16.291 0 29.479 13.188 29.479 29.479v242.036c0-16.291-13.188-29.479-29.479-29.479H39.564V128.776h182.303z" fill="#fdbf5e"/><g fill="#fff"><path d="M288.582 166.012h138.085v90.764H288.582zM288.582 278.497h138.085v7.758H288.582zM288.582 310.303h138.085v7.758H288.582zM288.582 342.109h138.085v7.758H288.582z"/></g><path fill="#2ea2db" d="M340.558 192.388v38.788l33.357-19.394z"/><g fill="#193651"><path d="M146.618 48.873h15.515v15.515h-15.515zM104.727 48.873h15.515v15.515h-15.515zM62.836 48.873h15.515v15.515H62.836z"/></g><path d="M78.352 415.806l41.115 72.145c1.552 2.327 5.43 2.327 6.982 0l41.115-72.145V273.842H78.352v141.964z" fill="#fff"/><path d="M122.57 498.036c-3.879 0-7.758-2.327-10.085-6.206l-41.891-73.697V266.085h103.952v152.048l-41.891 73.697c-1.552 3.879-5.431 6.206-10.085 6.206zm-36.461-83.781l36.461 64.388 36.461-64.388V281.6H86.109v132.655z" fill="#193651"/><path fill="#2ea2db" d="M107.055 280.824h30.255v135.758h-30.255z"/><path d="M78.352 416.582l41.115 71.37c1.552 2.327 5.43 2.327 6.982 0l41.115-71.37" fill="#fdbf5e"/><path d="M122.57 498.036c-3.879 0-7.758-2.327-10.085-6.206L71.37 420.46l13.188-7.758 37.236 65.939 37.236-65.939 13.188 7.758-39.564 71.37c-1.551 3.879-5.43 6.206-10.084 6.206z" fill="#193651"/><path d="M148.945 211.006H95.418c-10.085 0-17.842 7.758-17.842 17.842v45.77h88.436v-45.77c.776-10.084-6.982-17.842-17.067-17.842z" fill="#f16051"/><g fill="#193651"><path d="M174.545 281.6H70.594v-53.527c0-13.964 11.636-25.6 25.6-25.6h53.527c13.964 0 25.6 11.636 25.6 25.6V281.6h-.776zm-88.436-15.515h72.921v-38.012c0-5.43-4.655-10.085-10.085-10.085H95.418c-5.43 0-10.085 4.655-10.085 10.085v38.012h.776zM105.503 463.903l13.964 24.824c1.552 2.327 5.43 2.327 6.982 0l13.964-24.824h-34.91z"/><path d="M122.57 498.036c-3.879 0-7.758-2.327-10.085-6.206l-20.946-36.46h61.285l-20.17 36.461c-1.551 3.878-5.43 6.205-10.084 6.205zm-3.879-26.375l3.879 6.982 3.879-6.982h-7.758z"/></g></svg>